<svg width="31" height="30" viewBox="0 0 31 30" fill="none" xmlns="http://www.w3.org/2000/svg">
<path d="M4.78571 0H26.2143C28.5714 0 30.5 1.92857 30.5 4.28571V25.7143C30.5 28.0714 28.5714 30 26.2143 30H4.78571C2.42857 30 0.5 28.0714 0.5 25.7143V4.28571C0.5 1.92857 2.42857 0 4.78571 0Z" fill="#4778EB"/>
<path d="M25.1428 15.8571C25.1428 17.4642 25.1428 19.1785 25.1428 20.7856C25.1428 21.4285 24.9285 21.8571 24.4999 22.2856C23.7499 23.1428 22.6785 23.2499 21.6071 22.8214C21.2856 22.7142 21.0714 22.4999 20.7499 22.3928C20.4285 22.1785 20.4285 21.8571 20.5356 21.5356C20.7499 21.3214 21.0714 21.2142 21.3928 21.3214C21.7142 21.5356 22.1428 21.6428 22.5714 21.6428C23.1071 21.6428 23.6428 21.2142 23.8571 20.7856C23.8571 20.6785 23.9642 20.5714 23.9642 20.4642C23.9642 18.6428 23.9642 16.8214 23.9642 14.9999C23.9642 13.6071 23.9642 12.3214 23.9642 10.9285C23.9642 10.3928 23.7499 10.0714 23.2142 9.85707C19.2499 8.6785 15.3928 7.39279 11.4285 6.21422C10.7856 5.99993 10.1428 5.78564 9.39279 5.57136C9.28564 5.57136 9.07136 5.46422 8.96422 5.46422C8.32136 5.35707 7.78564 5.78565 7.78564 6.53565C7.78564 8.78565 7.78564 10.9285 7.78564 13.1785C7.78564 13.2856 7.78564 13.3928 7.6785 13.3928C7.35707 13.8214 6.71422 13.8214 6.39279 13.3928C6.39279 13.2856 6.28564 13.2856 6.28564 13.1785C6.28564 10.8214 6.28564 8.46422 6.28564 6.10707C6.28564 5.35707 6.9285 4.49993 7.99993 4.28564C8.4285 4.28564 8.85707 4.28564 9.1785 4.49993C9.71422 4.71422 10.2499 4.82136 10.7856 5.03564C13.2499 5.78564 15.8214 6.53564 18.2856 7.28564C20.1071 7.82136 21.8214 8.35707 23.6428 8.89279C24.1785 8.99993 24.6071 9.4285 24.8214 9.96422C25.0356 10.3928 25.0356 10.8214 25.0356 11.2499V11.3571C25.1428 12.7499 25.1428 14.2499 25.1428 15.8571Z" fill="white"/>
<path d="M16.7856 17.7857C16.7856 15.7499 16.7856 13.7142 16.7856 11.5714C16.7856 11.0357 17.1071 10.7142 17.6428 10.7142C17.9642 10.7142 18.2856 10.7142 18.6071 10.7142C19.1428 10.7142 19.4642 11.0357 19.4642 11.5714C19.4642 15.7499 19.4642 19.8214 19.4642 23.9999C19.4642 24.5357 19.1428 24.8571 18.6071 24.8571C18.2856 24.8571 17.9642 24.8571 17.6428 24.8571C17.1071 24.8571 16.7856 24.5357 16.7856 23.9999C16.7856 21.9642 16.7856 19.9285 16.7856 17.7857Z" fill="white"/>
<path d="M13.1428 18.2142C13.1428 16.7142 13.1428 15.2142 13.1428 13.7142C13.1428 13.1785 13.4642 12.8571 13.9999 12.8571C14.2142 12.8571 14.5356 12.8571 14.7499 12.8571C15.1785 12.8571 15.607 13.1785 15.607 13.7142C15.607 15.8571 15.607 18.1071 15.607 20.2499C15.607 21.1071 15.607 21.9642 15.607 22.7142C15.607 23.2499 15.1785 23.5713 14.7499 23.5713C14.4285 23.5713 14.2142 23.5713 13.8928 23.5713C13.4642 23.5713 13.1428 23.2499 13.1428 22.8213C13.1428 21.2142 13.1428 19.7142 13.1428 18.2142Z" fill="white"/>
<path d="M11.9642 18.1071C11.9642 19.2857 11.9642 20.3571 11.9642 21.5357C11.9642 22.0714 11.6428 22.3928 11.1071 22.3928C10.8928 22.3928 10.5714 22.3928 10.3571 22.3928C9.92851 22.3928 9.49994 22.0714 9.49994 21.5357C9.49994 21.4286 9.49994 21.3214 9.49994 21.2143C9.49994 19.0714 9.49994 16.8214 9.49994 14.6786C9.49994 14.25 9.71423 13.9286 10.1428 13.8214C10.2499 13.8214 10.2499 13.8214 10.3571 13.8214C10.5714 13.8214 10.8928 13.8214 11.1071 13.8214C11.6428 13.8214 11.9642 14.1428 11.9642 14.6786C11.9642 15.8571 11.9642 17.0357 11.9642 18.1071Z" fill="white"/>
<path d="M8.32134 18.1071C8.32134 18.8571 8.32134 19.6071 8.32134 20.3571C8.32134 20.7856 7.99991 21.1071 7.57134 21.2142C7.24991 21.2142 7.03563 21.2142 6.7142 21.2142C6.17848 21.2142 5.85706 20.7856 5.85706 20.3571C5.85706 18.8571 5.85706 17.3571 5.85706 15.8571C5.85706 15.4285 6.17848 15.1071 6.60706 15.1071C6.92848 15.1071 7.14277 15.1071 7.4642 15.1071C7.89277 15.1071 8.2142 15.4285 8.2142 15.8571C8.32134 16.6071 8.32134 17.3571 8.32134 18.1071Z" fill="white"/>
</svg>
