<svg width="64" height="64" viewBox="0 0 64 64" fill="none" xmlns="http://www.w3.org/2000/svg">
<path d="M9.14286 0H54.8571C59.8857 0 64 4.11429 64 9.14286V54.8571C64 59.8857 59.8857 64 54.8571 64H9.14286C4.11429 64 0 59.8857 0 54.8571V9.14286C0 4.11429 4.11429 0 9.14286 0Z" fill="#4778EB"/>
<path d="M52.5713 33.8287C52.5713 37.2573 52.5713 40.9144 52.5713 44.343C52.5713 45.7144 52.1141 46.6287 51.1999 47.543C49.5999 49.3716 47.3141 49.6001 45.0284 48.6859C44.3427 48.4573 43.8856 48.0001 43.1999 47.7716C42.5141 47.3144 42.5141 46.6287 42.7427 45.943C43.1999 45.4859 43.8856 45.2573 44.5713 45.4859C45.257 45.943 46.1713 46.1716 47.0856 46.1716C48.2284 46.1716 49.3713 45.2573 49.8284 44.343C49.8284 44.1144 50.057 43.8859 50.057 43.6573C50.057 39.7716 50.057 35.8859 50.057 32.0001C50.057 29.0287 50.057 26.2859 50.057 23.3144C50.057 22.1716 49.5999 21.4859 48.457 21.0287C39.9999 18.5144 31.7713 15.7716 23.3141 13.2573C21.9427 12.8001 20.5713 12.343 18.9713 11.8859C18.7427 11.8859 18.2856 11.6573 18.057 11.6573C16.6856 11.4287 15.5427 12.343 15.5427 13.943C15.5427 18.743 15.5427 23.3144 15.5427 28.1144C15.5427 28.343 15.5427 28.5716 15.3141 28.5716C14.6284 29.4859 13.257 29.4859 12.5713 28.5716C12.5713 28.343 12.3427 28.343 12.3427 28.1144C12.3427 23.0859 12.3427 18.0573 12.3427 13.0287C12.3427 11.4287 13.7141 9.60015 15.9999 9.14301C16.9141 9.14301 17.8284 9.143 18.5141 9.60015C19.657 10.0573 20.7999 10.2859 21.9427 10.743C27.1999 12.343 32.6856 13.943 37.9427 15.543C41.8284 16.6859 45.4856 17.8287 49.3713 18.9716C50.5141 19.2001 51.4284 20.1144 51.8856 21.2573C52.3427 22.1716 52.3427 23.0859 52.3427 24.0001V24.2287C52.5713 27.2001 52.5713 30.4001 52.5713 33.8287Z" fill="white"/>
<path d="M34.7427 37.9427C34.7427 33.5999 34.7427 29.257 34.7427 24.6856C34.7427 23.5427 35.4284 22.857 36.5713 22.857C37.257 22.857 37.9427 22.857 38.6284 22.857C39.7713 22.857 40.457 23.5427 40.457 24.6856C40.457 33.5999 40.457 42.2856 40.457 51.1999C40.457 52.3427 39.7713 53.0284 38.6284 53.0284C37.9427 53.0284 37.257 53.0284 36.5713 53.0284C35.4284 53.0284 34.7427 52.3427 34.7427 51.1999C34.7427 46.857 34.7427 42.5141 34.7427 37.9427Z" fill="white"/>
<path d="M26.9713 38.8572C26.9713 35.6572 26.9713 32.4572 26.9713 29.2572C26.9713 28.1144 27.657 27.4286 28.7999 27.4286C29.257 27.4286 29.9427 27.4286 30.3999 27.4286C31.3141 27.4286 32.2284 28.1144 32.2284 29.2572C32.2284 33.8287 32.2284 38.6287 32.2284 43.2001C32.2284 45.0287 32.2284 46.8572 32.2284 48.4572C32.2284 49.6001 31.3141 50.2858 30.3999 50.2858C29.7141 50.2858 29.257 50.2858 28.5713 50.2858C27.657 50.2858 26.9713 49.6001 26.9713 48.6858C26.9713 45.2572 26.9713 42.0572 26.9713 38.8572Z" fill="white"/>
<path d="M24.4571 38.6284C24.4571 41.1427 24.4571 43.4284 24.4571 45.9427C24.4571 47.0855 23.7714 47.7713 22.6285 47.7713C22.1714 47.7713 21.4857 47.7713 21.0285 47.7713C20.1142 47.7713 19.2 47.0855 19.2 45.9427C19.2 45.7141 19.2 45.4855 19.2 45.257C19.2 40.6855 19.2 35.8855 19.2 31.3141C19.2 30.3998 19.6571 29.7141 20.5714 29.4855C20.8 29.4855 20.8 29.4855 21.0285 29.4855C21.4857 29.4855 22.1714 29.4855 22.6285 29.4855C23.7714 29.4855 24.4571 30.1712 24.4571 31.3141C24.4571 33.8284 24.4571 36.3427 24.4571 38.6284Z" fill="white"/>
<path d="M16.6857 38.6284C16.6857 40.2284 16.6857 41.8284 16.6857 43.4284C16.6857 44.3427 16 45.0284 15.0857 45.257C14.4 45.257 13.9429 45.257 13.2572 45.257C12.1143 45.257 11.4286 44.3427 11.4286 43.4284C11.4286 40.2284 11.4286 37.0284 11.4286 33.8284C11.4286 32.9141 12.1143 32.2284 13.0286 32.2284C13.7143 32.2284 14.1714 32.2284 14.8572 32.2284C15.7714 32.2284 16.4572 32.9141 16.4572 33.8284C16.6857 35.4284 16.6857 37.0284 16.6857 38.6284Z" fill="white"/>
</svg>
